<?xml version="1.0" encoding="utf-8"?>
<!-- Generator: Adobe Illustrator 24.2.1, SVG Export Plug-In . SVG Version: 6.00 Build 0)  -->
<svg version="1.1" id="Layer_1" xmlns="http://www.w3.org/2000/svg" xmlns:xlink="http://www.w3.org/1999/xlink" x="0px" y="0px"
	 viewBox="0 0 16 16" style="enable-background:new 0 0 16 16;" xml:space="preserve">
<style type="text/css">
	.st0{fill:#FFFFFF;}
</style>
<g>
	<path d="M16,16H1.27C0.57,16,0,15.43,0,14.73V4.58l12.83,0C14.58,4.58,16,6,16,7.75V16z"/>
	<g>
		<g>
			<g>
				<g>
					<path class="st0" d="M3.77,7.85H3.28v0.51H3.02V7.11h0.81v0.21H3.28v0.32h0.49V7.85z"/>
					<path class="st0" d="M5.2,7.76c0,0.12-0.02,0.23-0.07,0.32C5.1,8.18,5.03,8.25,4.95,8.3C4.87,8.35,4.78,8.38,4.67,8.38
						c-0.1,0-0.2-0.02-0.28-0.07C4.32,8.25,4.25,8.18,4.21,8.09C4.16,8,4.14,7.89,4.14,7.77V7.71c0-0.12,0.02-0.23,0.07-0.32
						c0.04-0.09,0.11-0.17,0.19-0.22c0.08-0.05,0.17-0.08,0.28-0.08s0.2,0.03,0.28,0.08c0.08,0.05,0.14,0.12,0.19,0.22
						C5.18,7.48,5.2,7.58,5.2,7.71V7.76z M4.94,7.71c0-0.13-0.02-0.23-0.07-0.3c-0.05-0.07-0.11-0.1-0.2-0.1
						c-0.09,0-0.15,0.03-0.2,0.1C4.43,7.47,4.4,7.57,4.4,7.7v0.06c0,0.13,0.02,0.23,0.07,0.3c0.05,0.07,0.11,0.11,0.2,0.11
						c0.09,0,0.15-0.03,0.2-0.1C4.92,8,4.94,7.9,4.94,7.77V7.71z"/>
					<path class="st0" d="M6.12,7.9H5.91v0.46H5.66V7.11h0.46c0.15,0,0.26,0.03,0.34,0.1c0.08,0.07,0.12,0.16,0.12,0.28
						c0,0.09-0.02,0.16-0.06,0.21C6.49,7.76,6.43,7.8,6.36,7.84l0.27,0.51v0.01H6.35L6.12,7.9z M5.91,7.69h0.21
						c0.06,0,0.11-0.02,0.15-0.05s0.05-0.08,0.05-0.14c0-0.06-0.02-0.11-0.05-0.14C6.24,7.33,6.19,7.32,6.12,7.32H5.91V7.69z"/>
				</g>
			</g>
			<g>
				<path class="st0" d="M8.34,7.32H7.95v1.04H7.7V7.32H7.32V7.11h1.02V7.32z"/>
				<path class="st0" d="M9.72,8.36H9.47V7.82h-0.5v0.54H8.71V7.11h0.26v0.51h0.5V7.11h0.26V8.36z"/>
				<path class="st0" d="M10.85,7.82h-0.49v0.33h0.58v0.21h-0.84V7.11h0.84v0.21h-0.58v0.3h0.49V7.82z"/>
			</g>
		</g>
		<g>
			<g>
				<g>
					<path class="st0" d="M3.47,10.47h0.96v0.36H3.02V8.64h0.45V10.47z"/>
					<path class="st0" d="M6.63,9.79c0,0.22-0.04,0.4-0.11,0.57c-0.08,0.16-0.18,0.29-0.33,0.38c-0.14,0.09-0.3,0.13-0.49,0.13
						c-0.18,0-0.34-0.04-0.49-0.13c-0.14-0.09-0.25-0.21-0.33-0.37C4.81,10.2,4.77,10.01,4.77,9.8V9.69c0-0.22,0.04-0.4,0.12-0.57
						c0.08-0.16,0.19-0.29,0.33-0.38c0.14-0.09,0.3-0.13,0.49-0.13c0.18,0,0.34,0.04,0.49,0.13c0.14,0.09,0.25,0.21,0.33,0.38
						c0.08,0.16,0.12,0.35,0.12,0.57V9.79z M6.17,9.69c0-0.23-0.04-0.4-0.12-0.52C5.97,9.05,5.85,8.99,5.7,8.99
						c-0.15,0-0.27,0.06-0.35,0.18C5.27,9.28,5.22,9.45,5.22,9.68v0.11c0,0.22,0.04,0.4,0.12,0.52c0.08,0.12,0.2,0.18,0.35,0.18
						c0.15,0,0.27-0.06,0.35-0.18c0.08-0.12,0.12-0.29,0.12-0.52V9.69z"/>
					<path class="st0" d="M7.97,10.29l0.5-1.64h0.5L8.2,10.83H7.73L6.97,8.64h0.5L7.97,10.29z"/>
					<path class="st0" d="M10.78,9.88H9.92v0.59h1.02v0.36H9.47V8.64h1.46v0.36H9.92v0.52h0.87V9.88z"/>
				</g>
			</g>
			<g>
				<g>
					<path class="st0" d="M12.06,10.43c0,0.08-0.01,0.15-0.04,0.22c-0.03,0.06-0.07,0.11-0.12,0.14c-0.05,0.03-0.12,0.05-0.19,0.05
						c-0.07,0-0.13-0.02-0.18-0.05c-0.05-0.03-0.1-0.08-0.13-0.14c-0.03-0.06-0.04-0.13-0.05-0.21V10.4c0-0.08,0.01-0.15,0.04-0.22
						c0.03-0.06,0.07-0.11,0.13-0.14s0.12-0.05,0.19-0.05s0.13,0.02,0.19,0.05c0.05,0.03,0.1,0.08,0.13,0.14
						c0.03,0.06,0.04,0.13,0.04,0.22V10.43z M11.89,10.4c0-0.09-0.02-0.15-0.05-0.2c-0.03-0.05-0.08-0.07-0.13-0.07
						c-0.06,0-0.1,0.02-0.13,0.07c-0.03,0.04-0.05,0.11-0.05,0.2v0.04c0,0.09,0.02,0.15,0.05,0.2c0.03,0.05,0.08,0.07,0.14,0.07
						c0.06,0,0.1-0.02,0.13-0.07c0.03-0.05,0.05-0.11,0.05-0.2V10.4z"/>
					<path class="st0" d="M12.78,10.49h-0.33v0.34h-0.17V10h0.54v0.14h-0.37v0.22h0.33V10.49z"/>
				</g>
			</g>
		</g>
		<g>
			<g>
				<path class="st0" d="M3.61,11.27l0.56,1.59l0.56-1.59h0.59v2.19H4.87v-0.6l0.05-1.03l-0.59,1.63H4.01l-0.59-1.63l0.05,1.03v0.6
					H3.02v-2.19H3.61z"/>
				<path class="st0" d="M7.55,11.27v1.44c0,0.24-0.07,0.43-0.22,0.57c-0.15,0.14-0.35,0.21-0.61,0.21c-0.26,0-0.46-0.07-0.61-0.2
					c-0.15-0.14-0.23-0.32-0.23-0.56v-1.46h0.45v1.44c0,0.14,0.03,0.25,0.1,0.31c0.07,0.07,0.16,0.1,0.28,0.1
					c0.25,0,0.38-0.13,0.39-0.4v-1.46H7.55z"/>
				<path class="st0" d="M9.24,12.89c0-0.09-0.03-0.15-0.09-0.2c-0.06-0.05-0.17-0.09-0.32-0.14c-0.16-0.05-0.28-0.1-0.37-0.15
					c-0.25-0.13-0.37-0.31-0.37-0.54c0-0.12,0.03-0.22,0.1-0.32c0.07-0.09,0.16-0.16,0.29-0.22s0.26-0.08,0.42-0.08
					c0.16,0,0.3,0.03,0.42,0.08s0.22,0.14,0.28,0.24c0.07,0.1,0.1,0.22,0.1,0.35H9.24c0-0.1-0.03-0.18-0.09-0.23
					c-0.06-0.06-0.15-0.08-0.27-0.08c-0.11,0-0.2,0.02-0.26,0.07c-0.06,0.05-0.09,0.11-0.09,0.18c0,0.07,0.04,0.13,0.11,0.18
					c0.07,0.05,0.18,0.09,0.32,0.14c0.26,0.08,0.44,0.17,0.56,0.29c0.12,0.11,0.18,0.26,0.18,0.43c0,0.19-0.07,0.34-0.21,0.45
					c-0.14,0.11-0.34,0.16-0.58,0.16c-0.17,0-0.32-0.03-0.46-0.09c-0.14-0.06-0.24-0.15-0.32-0.25c-0.07-0.11-0.11-0.23-0.11-0.37
					h0.45c0,0.24,0.14,0.36,0.43,0.36c0.11,0,0.19-0.02,0.25-0.07C9.21,13.03,9.24,12.97,9.24,12.89z"/>
				<path class="st0" d="M10.66,13.46h-0.45v-2.19h0.45V13.46z"/>
			</g>
			<path class="st0" d="M12.98,12.73c-0.02,0.24-0.1,0.42-0.26,0.56c-0.16,0.14-0.36,0.2-0.62,0.2c-0.28,0-0.5-0.09-0.66-0.28
				c-0.16-0.19-0.24-0.45-0.24-0.78V12.3c0-0.21,0.04-0.4,0.11-0.56c0.07-0.16,0.18-0.28,0.32-0.37c0.14-0.09,0.3-0.13,0.48-0.13
				c0.25,0,0.46,0.07,0.61,0.2c0.15,0.14,0.24,0.32,0.27,0.57h-0.45c-0.01-0.14-0.05-0.24-0.12-0.31c-0.07-0.06-0.17-0.1-0.31-0.1
				c-0.15,0-0.26,0.05-0.34,0.16c-0.07,0.11-0.11,0.27-0.11,0.5v0.17c0,0.24,0.04,0.41,0.11,0.52c0.07,0.11,0.18,0.16,0.34,0.16
				c0.14,0,0.24-0.03,0.31-0.1c0.07-0.06,0.11-0.16,0.12-0.3H12.98z"/>
		</g>
	</g>
</g>
</svg>
